<svg xmlns="http://www.w3.org/2000/svg" id="canvas" viewBox="300.872 348.566 1202.984 287.667"><path d="M 321.19,372.67 C 320.72 374.27, 320.89 376.25, 320.59 380.77 C 320.29 385.30, 320.15 388.29, 319.68 395.28 C 319.22 402.27, 318.87 406.79, 318.25 415.72 C 317.63 424.64, 317.38 429.80, 316.58 439.91 C 315.79 450.03, 315.09 455.77, 314.27 466.30 C 313.44 476.82, 313.15 482.50, 312.46 492.54 C 311.77 502.57, 311.50 508.07, 310.81 516.48 C 310.12 524.89, 309.68 529.16, 309.02 534.60 C 308.36 540.04, 307.81 542.06, 307.52 543.68 C 307.24 545.30, 307.83 545.06, 307.61 542.71 C 307.40 540.36, 306.72 537.83, 306.45 531.94 C 306.18 526.05, 305.92 521.52, 306.26 513.26 C 306.60 505.00, 307.08 499.64, 308.14 490.64 C 309.21 481.65, 309.97 476.64, 311.59 468.29 C 313.21 459.95, 314.18 455.78, 316.24 448.93 C 318.30 442.08, 319.62 439.01, 321.87 434.05 C 324.12 429.09, 325.23 427.18, 327.48 424.15 C 329.73 421.12, 330.94 420.25, 333.12 418.89 C 335.30 417.54, 336.17 417.41, 338.38 417.39 C 340.59 417.37, 341.70 417.94, 344.18 418.81 C 346.65 419.69, 348.01 420.36, 350.76 421.77 C 353.52 423.19, 355.12 424.11, 357.95 425.88 C 360.79 427.65, 362.19 428.86, 364.93 430.63 C 367.67 432.40, 368.95 433.35, 371.66 434.73 C 374.37 436.10, 375.72 436.79, 378.47 437.51 C 381.23 438.23, 382.65 438.50, 385.43 438.32 C 388.22 438.14, 389.74 437.84, 392.40 436.61 C 395.07 435.38, 396.52 434.55, 398.75 432.17 C 400.99 429.79, 401.78 428.27, 403.59 424.72 C 405.41 421.16, 406.30 418.88, 407.84 414.39 C 409.38 409.90, 410.23 407.43, 411.29 402.26 C 412.35 397.09, 412.64 394.03, 413.14 388.54 C 413.64 383.06, 413.84 379.96, 413.79 374.84 C 413.74 369.73, 413.74 367.07, 412.90 362.98 C 412.06 358.89, 411.43 356.67, 409.59 354.39 C 407.75 352.11, 406.14 351.46, 403.69 351.58 C 401.23 351.70, 399.68 352.28, 397.33 355.00 C 394.98 357.72, 393.86 359.84, 391.94 365.18 C 390.01 370.51, 389.09 374.07, 387.71 381.69 C 386.32 389.31, 385.80 393.94, 385.03 403.28 C 384.26 412.63, 383.98 418.03, 383.88 428.42 C 383.77 438.81, 383.84 444.73, 384.51 455.25 C 385.19 465.77, 385.90 471.34, 387.26 481.01 C 388.61 490.68, 389.45 495.55, 391.29 503.61 C 393.14 511.67, 394.22 515.46, 396.48 521.30 C 398.75 527.14, 399.99 529.38, 402.60 532.79 C 405.22 536.20, 406.56 537.32, 409.55 538.35 C 412.53 539.38, 414.52 539.20, 417.53 537.95 C 420.53 536.70, 421.87 535.34, 424.57 532.10 C 427.26 528.86, 428.59 526.66, 430.99 521.77 C 433.38 516.88, 434.55 513.57, 436.53 507.63 C 438.51 501.69, 439.43 498.04, 440.90 492.07 C 442.38 486.10, 443.08 482.85, 443.91 477.78 C 444.74 472.71, 445.09 470.31, 445.07 466.70 C 445.06 463.10, 444.83 461.59, 443.83 459.75 C 442.84 457.91, 441.79 457.43, 440.09 457.49 C 438.39 457.55, 436.95 457.93, 435.34 460.03 C 433.72 462.13, 433.05 463.93, 432.02 467.97 C 430.98 472.02, 430.55 474.98, 430.16 480.24 C 429.77 485.50, 429.65 488.67, 430.09 494.27 C 430.52 499.88, 430.99 503.00, 432.32 508.27 C 433.64 513.54, 434.39 516.43, 436.72 520.64 C 439.05 524.86, 440.70 526.76, 443.98 529.34 C 447.25 531.91, 449.16 532.97, 453.09 533.53 C 457.02 534.08, 459.53 533.90, 463.62 532.11 C 467.70 530.31, 469.66 528.74, 473.51 524.54 C 477.37 520.34, 479.31 517.55, 482.90 511.11 C 486.48 504.66, 488.33 500.64, 491.44 492.30 C 494.54 483.95, 495.99 478.91, 498.43 469.36 C 500.88 459.82, 501.89 454.26, 503.66 444.57 C 505.44 434.88, 506.19 429.90, 507.33 420.93 C 508.46 411.95, 508.81 407.46, 509.32 399.69 C 509.84 391.91, 509.89 388.10, 509.90 382.04 C 509.92 375.98, 509.98 373.36, 509.40 369.40 C 508.82 365.45, 508.33 363.82, 507.00 362.26 C 505.68 360.70, 504.30 360.42, 502.78 361.60 C 501.25 362.78, 500.57 364.19, 499.38 368.16 C 498.18 372.14, 497.76 374.97, 496.80 381.48 C 495.84 387.99, 495.30 392.19, 494.57 400.71 C 493.84 409.23, 493.43 414.33, 493.14 424.07 C 492.84 433.82, 492.74 439.50, 493.09 449.43 C 493.45 459.36, 493.81 464.77, 494.90 473.72 C 495.99 482.68, 496.77 486.96, 498.53 494.20 C 500.29 501.45, 501.38 504.79, 503.71 509.93 C 506.04 515.06, 507.24 517.16, 510.20 519.88 C 513.15 522.60, 515.05 523.39, 518.50 523.53 C 521.95 523.66, 523.87 523.05, 527.44 520.55 C 531.02 518.05, 532.83 516.04, 536.38 511.01 C 539.93 505.98, 541.78 502.64, 545.21 495.40 C 548.64 488.16, 550.46 483.61, 553.53 474.82 C 556.60 466.03, 558.09 460.94, 560.56 451.46 C 563.02 441.98, 564.14 436.74, 565.86 427.42 C 567.58 418.10, 568.28 413.04, 569.14 404.84 C 570.00 396.65, 570.16 392.70, 570.16 386.46 C 570.17 380.22, 570.12 377.58, 569.16 373.65 C 568.20 369.72, 567.36 368.06, 565.38 366.83 C 563.39 365.59, 561.52 365.55, 559.25 367.49 C 556.97 369.43, 555.89 371.63, 553.99 376.52 C 552.09 381.40, 551.16 384.68, 549.74 391.93 C 548.32 399.18, 547.66 403.82, 546.88 412.77 C 546.11 421.71, 545.83 427.16, 545.86 436.65 C 545.88 446.15, 546.03 451.27, 547.00 460.25 C 547.98 469.23, 548.71 473.81, 550.72 481.57 C 552.73 489.34, 554.14 493.01, 557.05 499.06 C 559.96 505.11, 561.65 507.74, 565.27 511.83 C 568.89 515.92, 570.95 517.44, 575.16 519.49 C 579.36 521.55, 581.85 522.12, 586.31 522.09 C 590.77 522.05, 593.16 521.37, 597.44 519.33 C 601.72 517.28, 603.91 515.53, 607.71 511.88 C 611.51 508.22, 613.45 505.90, 616.44 501.05 C 619.43 496.21, 620.73 493.11, 622.66 487.65 C 624.60 482.20, 625.35 478.88, 626.11 473.77 C 626.87 468.67, 626.96 466.06, 626.44 462.13 C 625.93 458.20, 625.31 456.35, 623.53 454.12 C 621.75 451.90, 620.21 451.18, 617.54 451.01 C 614.87 450.83, 612.92 451.30, 610.21 453.24 C 607.50 455.18, 606.10 457.10, 603.99 460.71 C 601.88 464.32, 600.84 466.79, 599.65 471.31 C 598.46 475.82, 597.95 478.55, 598.04 483.29 C 598.13 488.03, 598.50 490.81, 600.09 495.03 C 601.67 499.24, 603.04 501.28, 605.97 504.36 C 608.90 507.44, 610.88 508.83, 614.76 510.42 C 618.64 512.00, 621.09 512.46, 625.37 512.29 C 629.66 512.12, 632.18 511.50, 636.20 509.58 C 640.22 507.66, 642.41 506.23, 645.47 502.67 C 648.53 499.12, 650.04 496.63, 651.52 491.81 C 652.99 486.99, 653.34 483.79, 652.85 478.58 C 652.37 473.38, 651.40 470.35, 649.09 465.80 C 646.77 461.25, 644.92 459.04, 641.26 455.82 C 637.60 452.60, 635.10 451.42, 630.78 449.69 C 626.46 447.96, 623.74 447.45, 619.66 447.17 C 615.58 446.89, 613.27 447.38, 610.36 448.30 C 607.44 449.23, 606.55 450.35, 605.09 451.80 C 603.63 453.25, 603.28 454.29, 603.06 455.54 C 602.85 456.79, 603.59 457.62, 604.03 458.07 C 604.46 458.52, 605.00 458.16, 605.24 457.78 C 605.48 457.41, 604.86 456.91, 605.24 456.20 C 605.62 455.48, 605.89 455.08, 607.14 454.22 C 608.40 453.37, 609.04 452.72, 611.51 451.94 C 613.99 451.16, 615.87 450.24, 619.52 450.31 C 623.18 450.37, 625.78 450.76, 629.79 452.25 C 633.80 453.73, 636.17 454.80, 639.58 457.74 C 642.99 460.68, 644.70 462.73, 646.84 466.94 C 648.99 471.16, 649.88 474.00, 650.32 478.82 C 650.75 483.64, 650.40 486.62, 649.02 491.04 C 647.64 495.45, 646.21 497.68, 643.40 500.87 C 640.59 504.06, 638.60 505.28, 634.97 506.98 C 631.34 508.67, 629.08 509.19, 625.26 509.34 C 621.44 509.48, 619.31 509.10, 615.86 507.70 C 612.42 506.31, 610.67 505.11, 608.05 502.37 C 605.42 499.64, 604.16 497.86, 602.73 494.03 C 601.31 490.21, 600.94 487.63, 600.92 483.26 C 600.90 478.88, 601.43 476.29, 602.65 472.14 C 603.86 468.00, 605.03 465.70, 607.02 462.54 C 609.00 459.38, 610.47 458.04, 612.56 456.34 C 614.65 454.63, 615.76 454.10, 617.47 454.02 C 619.19 453.95, 619.91 454.26, 621.13 455.96 C 622.35 457.66, 623.06 459.03, 623.56 462.52 C 624.06 466.02, 624.23 468.56, 623.61 473.43 C 622.99 478.30, 622.28 481.60, 620.45 486.87 C 618.61 492.15, 617.32 495.16, 614.43 499.81 C 611.54 504.45, 609.62 506.64, 606.00 510.08 C 602.38 513.52, 600.27 515.10, 596.32 517.00 C 592.38 518.89, 590.31 519.48, 586.27 519.56 C 582.24 519.65, 580.05 519.23, 576.14 517.42 C 572.24 515.61, 570.25 514.32, 566.74 510.50 C 563.23 506.68, 561.50 504.18, 558.58 498.31 C 555.67 492.45, 554.21 488.83, 552.18 481.19 C 550.15 473.55, 549.39 469.00, 548.42 460.10 C 547.45 451.19, 547.30 446.09, 547.32 436.65 C 547.34 427.22, 547.63 421.78, 548.52 412.92 C 549.41 404.06, 550.17 399.43, 551.76 392.35 C 553.34 385.27, 554.54 382.06, 556.45 377.51 C 558.36 372.96, 559.76 371.42, 561.32 369.61 C 562.88 367.80, 563.14 367.54, 564.25 368.45 C 565.36 369.37, 566.04 370.59, 566.86 374.19 C 567.68 377.80, 568.20 380.38, 568.35 386.48 C 568.51 392.59, 568.41 396.56, 567.64 404.69 C 566.87 412.83, 566.19 417.89, 564.50 427.17 C 562.82 436.46, 561.70 441.68, 559.22 451.11 C 556.73 460.53, 555.22 465.61, 552.10 474.31 C 548.97 483.01, 547.09 487.53, 543.59 494.61 C 540.08 501.69, 538.10 504.95, 534.57 509.71 C 531.04 514.46, 529.14 516.16, 525.94 518.39 C 522.74 520.61, 521.41 520.88, 518.58 520.83 C 515.75 520.78, 514.41 520.47, 511.78 518.13 C 509.15 515.79, 507.78 513.98, 505.44 509.12 C 503.09 504.26, 501.88 500.94, 500.05 493.82 C 498.23 486.71, 497.41 482.44, 496.29 473.55 C 495.17 464.66, 494.80 459.27, 494.46 449.38 C 494.12 439.49, 494.23 433.82, 494.60 424.12 C 494.97 414.42, 495.41 409.33, 496.31 400.88 C 497.22 392.43, 497.91 388.25, 499.13 381.88 C 500.34 375.51, 501.36 372.81, 502.39 369.03 C 503.42 365.25, 503.70 364.10, 504.28 362.97 C 504.86 361.83, 504.75 361.99, 505.28 363.35 C 505.80 364.71, 506.35 366.03, 506.90 369.77 C 507.45 373.51, 507.85 376.10, 508.03 382.06 C 508.20 388.03, 508.20 391.86, 507.79 399.59 C 507.38 407.33, 507.05 411.81, 505.96 420.76 C 504.87 429.70, 504.12 434.67, 502.34 444.32 C 500.56 453.98, 499.55 459.53, 497.07 469.01 C 494.59 478.49, 493.12 483.50, 489.96 491.74 C 486.80 499.97, 484.89 503.93, 481.27 510.18 C 477.65 516.43, 475.59 519.08, 471.85 522.98 C 468.11 526.87, 466.23 528.11, 462.56 529.66 C 458.89 531.22, 456.87 531.23, 453.49 530.74 C 450.11 530.24, 448.56 529.46, 445.65 527.19 C 442.75 524.93, 441.14 523.31, 438.94 519.40 C 436.75 515.50, 435.94 512.74, 434.68 507.68 C 433.41 502.62, 432.94 499.53, 432.62 494.10 C 432.31 488.67, 432.51 485.55, 433.11 480.52 C 433.71 475.50, 434.54 472.65, 435.64 468.97 C 436.73 465.29, 437.65 464.03, 438.60 462.12 C 439.55 460.20, 439.80 459.70, 440.38 459.41 C 440.96 459.13, 441.18 459.23, 441.51 460.69 C 441.84 462.14, 442.05 463.36, 442.05 466.71 C 442.04 470.05, 442.16 472.45, 441.49 477.42 C 440.82 482.38, 440.14 485.64, 438.71 491.53 C 437.27 497.42, 436.33 501.07, 434.31 506.87 C 432.29 512.68, 431.04 515.93, 428.62 520.58 C 426.20 525.23, 424.70 527.23, 422.22 530.12 C 419.74 533.01, 418.59 533.90, 416.23 535.01 C 413.87 536.12, 412.80 536.38, 410.43 535.66 C 408.05 534.94, 406.82 534.41, 404.36 531.40 C 401.90 528.40, 400.45 526.27, 398.11 520.65 C 395.78 515.02, 394.62 511.24, 392.70 503.28 C 390.79 495.32, 389.93 490.45, 388.54 480.83 C 387.16 471.20, 386.44 465.64, 385.77 455.17 C 385.11 444.69, 385.05 438.79, 385.20 428.44 C 385.36 418.09, 385.67 412.69, 386.55 403.42 C 387.42 394.14, 388.03 389.52, 389.58 382.06 C 391.14 374.59, 392.26 371.08, 394.31 366.09 C 396.35 361.09, 397.91 359.47, 399.82 357.07 C 401.73 354.67, 402.42 354.26, 403.87 354.11 C 405.31 353.95, 405.80 354.38, 407.03 356.28 C 408.26 358.18, 409.19 359.87, 410.03 363.59 C 410.86 367.32, 411.08 369.94, 411.21 374.89 C 411.34 379.83, 411.17 382.95, 410.67 388.32 C 410.18 393.68, 409.85 396.70, 408.73 401.71 C 407.61 406.73, 406.69 409.11, 405.07 413.39 C 403.44 417.67, 402.41 419.89, 400.58 423.09 C 398.76 426.30, 397.91 427.46, 395.93 429.41 C 393.94 431.36, 392.82 431.85, 390.67 432.83 C 388.51 433.81, 387.39 434.15, 385.17 434.30 C 382.94 434.46, 381.85 434.24, 379.52 433.60 C 377.19 432.96, 376.00 432.35, 373.51 431.09 C 371.01 429.83, 369.75 429.02, 367.06 427.30 C 364.38 425.59, 362.96 424.35, 360.08 422.51 C 357.20 420.67, 355.59 419.64, 352.66 418.11 C 349.73 416.58, 348.33 415.69, 345.43 414.86 C 342.54 414.03, 340.98 413.68, 338.18 413.96 C 335.37 414.24, 333.93 414.50, 331.38 416.25 C 328.84 418.00, 327.71 419.32, 325.44 422.72 C 323.18 426.13, 322.22 428.12, 320.07 433.26 C 317.91 438.41, 316.65 441.51, 314.65 448.46 C 312.65 455.41, 311.70 459.60, 310.07 468.00 C 308.45 476.40, 307.70 481.41, 306.53 490.44 C 305.37 499.47, 304.76 504.84, 304.26 513.16 C 303.76 521.48, 303.81 526.02, 304.04 532.04 C 304.26 538.06, 304.41 540.81, 305.39 543.26 C 306.37 545.71, 307.82 545.96, 308.93 544.27 C 310.04 542.59, 310.27 540.37, 310.94 534.83 C 311.61 529.29, 311.72 525.03, 312.29 516.59 C 312.85 508.15, 313.10 502.66, 313.75 492.62 C 314.40 482.59, 314.69 476.92, 315.53 466.40 C 316.37 455.88, 317.09 450.14, 317.96 440.03 C 318.83 429.92, 319.14 424.76, 319.89 415.84 C 320.64 406.93, 321.10 402.43, 321.72 395.44 C 322.34 388.46, 322.75 385.46, 322.99 380.92 C 323.23 376.37, 323.30 374.38, 322.94 372.73 C 322.58 371.07, 321.66 371.06, 321.19 372.67" style="stroke: black; fill: black;"/><path d="M 694.70,505.07 C 694.22 506.05, 694.20 507.10, 694.01 509.80 C 693.82 512.49, 694.03 514.47, 693.77 518.54 C 693.50 522.61, 693.28 525.47, 692.67 530.15 C 692.06 534.82, 691.64 537.50, 690.72 541.90 C 689.81 546.30, 688.97 548.72, 688.09 552.14 C 687.21 555.55, 686.70 556.89, 686.32 558.97 C 685.93 561.06, 685.98 561.78, 686.16 562.56 C 686.34 563.34, 686.63 563.42, 687.20 562.86 C 687.77 562.31, 688.16 561.76, 689.00 559.79 C 689.85 557.82, 690.46 556.47, 691.41 553.02 C 692.35 549.56, 692.84 546.99, 693.72 542.51 C 694.61 538.03, 695.11 535.33, 695.84 530.60 C 696.58 525.87, 696.97 523.01, 697.40 518.85 C 697.83 514.69, 698.20 512.58, 698.00 509.79 C 697.80 507.00, 697.07 505.85, 696.41 504.91 C 695.75 503.96, 695.18 504.09, 694.70 505.07" style="stroke: black; fill: black;"/><path d="M 783.90,378.46 C 783.51 379.19, 783.23 379.58, 783.38 381.90 C 783.54 384.22, 784.10 385.72, 784.68 390.06 C 785.26 394.40, 785.68 397.21, 786.29 403.61 C 786.90 410.01, 787.18 414.13, 787.74 422.05 C 788.30 429.96, 788.51 434.58, 789.09 443.18 C 789.67 451.79, 790.05 456.59, 790.64 465.07 C 791.23 473.55, 791.50 477.85, 792.04 485.60 C 792.57 493.34, 792.76 497.28, 793.32 503.79 C 793.89 510.31, 794.31 513.29, 794.87 518.16 C 795.43 523.03, 795.49 525.12, 796.13 528.16 C 796.77 531.19, 797.44 532.34, 798.06 533.32 C 798.68 534.29, 799.10 534.16, 799.22 533.04 C 799.34 531.92, 799.08 530.75, 798.66 527.71 C 798.24 524.68, 797.81 522.69, 797.10 517.87 C 796.40 513.05, 795.82 510.10, 795.13 503.62 C 794.44 497.14, 794.23 493.21, 793.64 485.48 C 793.04 477.75, 792.76 473.44, 792.17 464.96 C 791.58 456.48, 791.22 451.69, 790.70 443.08 C 790.18 434.47, 790.00 429.86, 789.59 421.93 C 789.18 414.01, 788.99 409.88, 788.66 403.44 C 788.33 396.99, 788.28 394.13, 787.93 389.72 C 787.59 385.31, 787.45 383.68, 786.93 381.38 C 786.42 379.09, 785.96 378.81, 785.36 378.22 C 784.75 377.64, 784.30 377.72, 783.90 378.46" style="stroke: black; fill: black;"/><path d="M 839.17,367.81 C 838.36 367.93, 837.44 368.09, 836.32 369.55 C 835.19 371.02, 834.46 371.88, 833.56 375.13 C 832.65 378.38, 832.32 380.45, 831.79 385.79 C 831.26 391.14, 831.05 394.48, 830.91 401.85 C 830.78 409.23, 830.86 413.70, 831.14 422.68 C 831.41 431.65, 831.66 436.89, 832.29 446.73 C 832.92 456.57, 833.34 462.02, 834.28 471.89 C 835.22 481.76, 835.96 486.98, 837.01 496.08 C 838.06 505.17, 838.66 509.69, 839.54 517.36 C 840.41 525.03, 840.73 528.88, 841.40 534.43 C 842.08 539.99, 842.01 542.79, 842.91 545.14 C 843.81 547.49, 845.11 547.80, 845.90 546.17 C 846.70 544.53, 846.75 542.31, 846.87 536.97 C 847.00 531.64, 846.63 527.38, 846.53 519.49 C 846.44 511.60, 846.37 506.18, 846.40 497.53 C 846.42 488.88, 846.39 483.90, 846.65 476.23 C 846.92 468.56, 847.09 464.98, 847.73 459.17 C 848.37 453.36, 848.91 451.13, 849.85 447.18 C 850.80 443.24, 851.46 441.82, 852.45 439.45 C 853.44 437.08, 853.64 436.35, 854.80 435.34 C 855.96 434.34, 856.52 434.45, 858.23 434.43 C 859.95 434.42, 860.94 434.82, 863.37 435.27 C 865.79 435.71, 867.31 436.05, 870.37 436.65 C 873.44 437.25, 875.27 437.60, 878.69 438.27 C 882.11 438.94, 884.21 439.49, 887.47 440.01 C 890.73 440.54, 892.32 440.66, 894.99 440.88 C 897.66 441.11, 899.58 441.42, 900.82 441.13 C 902.06 440.84, 902.24 440.25, 901.20 439.44 C 900.17 438.63, 898.25 437.78, 895.64 437.09 C 893.03 436.41, 891.37 436.57, 888.14 436.01 C 884.92 435.45, 882.89 435.02, 879.52 434.28 C 876.15 433.54, 874.40 433.01, 871.29 432.31 C 868.19 431.60, 866.69 431.01, 863.99 430.75 C 861.29 430.48, 860.00 430.47, 857.78 430.96 C 855.57 431.46, 854.58 431.75, 852.93 433.20 C 851.27 434.66, 850.60 435.56, 849.52 438.25 C 848.44 440.95, 848.25 442.55, 847.51 446.69 C 846.77 450.84, 846.35 453.09, 845.83 458.99 C 845.32 464.88, 845.19 468.47, 844.94 476.17 C 844.70 483.88, 844.74 488.85, 844.62 497.52 C 844.51 506.18, 844.43 511.61, 844.37 519.50 C 844.31 527.38, 844.34 531.67, 844.33 536.94 C 844.33 542.21, 844.20 544.31, 844.34 545.85 C 844.49 547.39, 845.24 546.98, 845.06 544.64 C 844.88 542.31, 844.23 539.66, 843.44 534.16 C 842.64 528.67, 842.10 524.82, 841.09 517.17 C 840.07 509.52, 839.47 505.00, 838.38 495.92 C 837.28 486.84, 836.55 481.62, 835.61 471.76 C 834.67 461.91, 834.26 456.47, 833.69 446.65 C 833.11 436.82, 832.89 431.58, 832.74 422.64 C 832.58 413.69, 832.56 409.21, 832.92 401.92 C 833.28 394.63, 833.62 391.29, 834.53 386.17 C 835.44 381.04, 836.52 379.27, 837.46 376.29 C 838.41 373.31, 838.69 372.73, 839.26 371.26 C 839.84 369.79, 840.36 369.64, 840.34 368.95 C 840.32 368.26, 839.97 367.69, 839.17 367.81" style="stroke: black; fill: black;"/><path d="M 914.26,441.75 C 913.81 442.29, 913.74 442.62, 913.52 444.31 C 913.30 445.99, 913.07 447.04, 913.15 450.17 C 913.23 453.31, 913.71 455.49, 913.93 460.00 C 914.15 464.50, 914.29 467.49, 914.24 472.70 C 914.20 477.91, 913.81 480.98, 913.71 486.03 C 913.62 491.09, 913.66 493.80, 913.78 497.97 C 913.91 502.13, 913.66 504.32, 914.32 506.86 C 914.98 509.41, 915.68 510.25, 917.09 510.71 C 918.49 511.17, 919.70 510.93, 921.37 509.16 C 923.04 507.39, 923.75 505.60, 925.44 501.86 C 927.13 498.11, 928.01 495.20, 929.80 490.45 C 931.58 485.70, 932.56 482.75, 934.37 478.10 C 936.18 473.45, 937.15 470.96, 938.86 467.20 C 940.57 463.45, 941.82 461.72, 942.92 459.34 C 944.02 456.97, 943.92 455.85, 944.36 455.33 C 944.79 454.82, 944.72 455.28, 945.09 456.76 C 945.46 458.25, 945.60 459.66, 946.22 462.77 C 946.84 465.88, 947.49 468.29, 948.19 472.29 C 948.90 476.30, 949.13 478.95, 949.74 482.80 C 950.35 486.65, 950.37 488.76, 951.24 491.55 C 952.12 494.35, 952.70 495.52, 954.11 496.76 C 955.52 497.99, 956.42 498.26, 958.28 497.73 C 960.13 497.19, 961.30 496.42, 963.39 494.07 C 965.47 491.72, 966.33 489.75, 968.69 485.99 C 971.06 482.24, 972.40 479.61, 975.22 475.29 C 978.03 470.97, 979.72 468.28, 982.77 464.40 C 985.82 460.53, 987.63 458.50, 990.45 455.90 C 993.28 453.30, 994.72 452.33, 996.90 451.40 C 999.07 450.48, 999.79 450.38, 1001.32 451.27 C 1002.85 452.15, 1003.32 453.25, 1004.54 455.83 C 1005.76 458.42, 1006.40 460.29, 1007.42 464.20 C 1008.43 468.10, 1008.87 470.70, 1009.64 475.36 C 1010.41 480.02, 1010.54 482.81, 1011.27 487.49 C 1011.99 492.17, 1012.14 494.70, 1013.24 498.76 C 1014.35 502.83, 1015.13 504.88, 1016.78 507.79 C 1018.43 510.70, 1019.74 511.88, 1021.51 513.32 C 1023.29 514.76, 1024.69 514.88, 1025.66 514.99 C 1026.64 515.09, 1026.79 514.62, 1026.38 513.85 C 1025.97 513.09, 1024.92 512.72, 1023.62 511.16 C 1022.31 509.60, 1021.35 508.70, 1019.85 506.05 C 1018.36 503.41, 1017.30 501.73, 1016.15 497.93 C 1015.00 494.13, 1014.82 491.66, 1014.11 487.05 C 1013.41 482.44, 1013.32 479.63, 1012.64 474.90 C 1011.96 470.17, 1011.69 467.54, 1010.73 463.38 C 1009.77 459.23, 1009.47 457.08, 1007.86 454.14 C 1006.24 451.19, 1005.10 449.80, 1002.67 448.65 C 1000.25 447.50, 998.58 447.36, 995.73 448.37 C 992.88 449.39, 991.45 450.85, 988.42 453.71 C 985.39 456.58, 983.71 458.70, 980.58 462.68 C 977.45 466.67, 975.75 469.38, 972.78 473.65 C 969.82 477.91, 968.31 480.48, 965.76 484.01 C 963.21 487.55, 961.76 489.03, 960.03 491.31 C 958.31 493.59, 957.94 494.62, 957.12 495.41 C 956.31 496.20, 956.34 496.24, 955.96 495.26 C 955.59 494.29, 955.75 493.15, 955.25 490.53 C 954.75 487.92, 954.07 485.97, 953.45 482.20 C 952.83 478.43, 952.72 475.76, 952.15 471.67 C 951.57 467.58, 951.45 465.02, 950.56 461.74 C 949.66 458.46, 949.07 456.89, 947.67 455.29 C 946.28 453.69, 945.18 453.27, 943.59 453.73 C 941.99 454.20, 941.22 455.16, 939.71 457.61 C 938.21 460.07, 937.68 462.11, 936.08 466.00 C 934.48 469.89, 933.56 472.40, 931.71 477.06 C 929.87 481.71, 928.79 484.63, 926.83 489.27 C 924.88 493.91, 923.60 496.68, 921.95 500.27 C 920.30 503.86, 919.47 505.36, 918.59 507.20 C 917.72 509.04, 917.78 509.64, 917.58 509.47 C 917.38 509.29, 917.75 508.65, 917.61 506.32 C 917.46 503.99, 917.08 501.89, 916.85 497.84 C 916.61 493.79, 916.39 491.09, 916.45 486.07 C 916.50 481.06, 916.93 477.99, 917.12 472.77 C 917.31 467.54, 917.28 464.50, 917.40 459.96 C 917.53 455.42, 917.80 453.23, 917.74 450.07 C 917.68 446.90, 917.48 445.83, 917.09 444.13 C 916.70 442.43, 916.36 442.06, 915.79 441.58 C 915.23 441.11, 914.72 441.20, 914.26 441.75" style="stroke: black; fill: black;"/><path d="M 1144.97,373.95 C 1144.76 374.09, 1144.37 373.48, 1144.15 374.30 C 1143.92 375.12, 1143.35 375.46, 1143.85 378.03 C 1144.34 380.60, 1145.41 382.26, 1146.62 387.15 C 1147.82 392.04, 1148.45 395.40, 1149.86 402.47 C 1151.27 409.55, 1152.21 414.07, 1153.65 422.52 C 1155.10 430.97, 1155.94 435.88, 1157.08 444.72 C 1158.23 453.56, 1158.75 458.34, 1159.38 466.73 C 1160.01 475.11, 1160.31 479.40, 1160.22 486.66 C 1160.13 493.91, 1159.85 497.48, 1158.92 502.99 C 1157.99 508.50, 1157.15 510.85, 1155.58 514.22 C 1154.01 517.58, 1153.18 518.41, 1151.07 519.80 C 1148.95 521.18, 1147.85 521.37, 1145.00 521.15 C 1142.14 520.94, 1140.32 520.47, 1136.79 518.74 C 1133.26 517.00, 1131.08 515.47, 1127.35 512.50 C 1123.62 509.54, 1121.29 507.49, 1118.14 503.91 C 1115.00 500.33, 1113.38 498.05, 1111.63 494.60 C 1109.88 491.16, 1109.30 489.56, 1109.39 486.67 C 1109.49 483.78, 1109.92 482.76, 1112.09 480.17 C 1114.25 477.58, 1116.02 476.17, 1120.22 473.72 C 1124.42 471.27, 1127.22 470.06, 1133.10 467.92 C 1138.98 465.77, 1142.65 464.79, 1149.62 462.98 C 1156.59 461.17, 1160.63 460.37, 1167.94 458.87 C 1175.25 457.38, 1179.17 456.77, 1186.17 455.50 C 1193.17 454.24, 1196.71 453.55, 1202.94 452.55 C 1209.16 451.56, 1212.24 451.10, 1217.29 450.54 C 1222.35 449.97, 1224.65 450.03, 1228.21 449.74 C 1231.78 449.45, 1233.26 449.56, 1235.11 449.08 C 1236.96 448.61, 1237.52 448.15, 1237.46 447.38 C 1237.41 446.61, 1236.72 445.72, 1234.85 445.23 C 1232.98 444.73, 1231.37 444.42, 1228.11 444.92 C 1224.85 445.42, 1222.67 446.13, 1218.56 447.71 C 1214.46 449.29, 1211.80 450.11, 1207.59 452.81 C 1203.38 455.50, 1201.15 457.33, 1197.51 461.21 C 1193.87 465.08, 1191.99 467.68, 1189.37 472.18 C 1186.76 476.68, 1185.57 479.16, 1184.43 483.70 C 1183.29 488.23, 1183.18 490.78, 1183.68 494.84 C 1184.17 498.90, 1184.79 501.11, 1186.91 504.00 C 1189.02 506.89, 1190.88 508.21, 1194.25 509.29 C 1197.62 510.36, 1199.85 510.38, 1203.76 509.37 C 1207.68 508.36, 1209.87 507.23, 1213.83 504.25 C 1217.78 501.28, 1219.89 498.99, 1223.54 494.49 C 1227.19 490.00, 1229.03 486.94, 1232.07 481.76 C 1235.10 476.59, 1236.54 473.41, 1238.72 468.61 C 1240.89 463.81, 1242.00 461.11, 1242.94 457.75 C 1243.89 454.39, 1243.79 452.74, 1243.46 451.81 C 1243.12 450.89, 1242.06 451.21, 1241.29 453.13 C 1240.52 455.06, 1240.08 457.27, 1239.62 461.45 C 1239.15 465.64, 1238.91 468.81, 1238.96 474.07 C 1239.02 479.33, 1239.10 482.72, 1239.89 487.75 C 1240.68 492.79, 1241.33 495.35, 1242.91 499.26 C 1244.48 503.17, 1245.45 504.91, 1247.75 507.32 C 1250.04 509.74, 1251.50 510.73, 1254.39 511.33 C 1257.29 511.92, 1259.29 511.65, 1262.22 510.30 C 1265.15 508.95, 1266.49 507.48, 1269.04 504.58 C 1271.59 501.67, 1272.79 499.78, 1274.96 495.77 C 1277.14 491.76, 1278.18 489.20, 1279.92 484.52 C 1281.66 479.84, 1282.42 476.68, 1283.66 472.36 C 1284.89 468.05, 1285.71 465.71, 1286.08 462.95 C 1286.45 460.19, 1285.94 458.93, 1285.50 458.54 C 1285.07 458.15, 1284.21 458.80, 1283.89 461.00 C 1283.58 463.21, 1283.55 465.63, 1283.91 469.57 C 1284.26 473.50, 1284.60 476.37, 1285.67 480.68 C 1286.73 484.98, 1287.47 487.50, 1289.26 491.08 C 1291.04 494.66, 1292.08 496.55, 1294.59 498.57 C 1297.11 500.59, 1298.77 501.10, 1301.84 501.17 C 1304.92 501.24, 1306.61 500.72, 1309.96 498.93 C 1313.32 497.14, 1315.19 495.65, 1318.62 492.23 C 1322.06 488.82, 1323.99 486.28, 1327.14 481.85 C 1330.28 477.41, 1331.80 474.58, 1334.34 470.05 C 1336.87 465.52, 1338.39 462.92, 1339.82 459.21 C 1341.24 455.50, 1341.57 453.29, 1341.46 451.48 C 1341.36 449.68, 1340.23 448.98, 1339.29 450.17 C 1338.36 451.35, 1337.84 452.99, 1336.80 457.41 C 1335.77 461.84, 1335.29 465.07, 1334.12 472.29 C 1332.96 479.51, 1332.42 484.17, 1330.97 493.51 C 1329.52 502.85, 1328.63 508.47, 1326.87 519.00 C 1325.11 529.53, 1324.12 535.46, 1322.18 546.16 C 1320.23 556.86, 1319.34 562.60, 1317.15 572.48 C 1314.96 582.36, 1313.83 587.33, 1311.22 595.55 C 1308.61 603.77, 1307.11 607.60, 1304.11 613.57 C 1301.10 619.54, 1299.36 622.02, 1296.19 625.39 C 1293.03 628.77, 1291.28 629.73, 1288.28 630.43 C 1285.28 631.14, 1283.87 630.79, 1281.20 628.90 C 1278.52 627.01, 1276.99 625.31, 1274.93 620.99 C 1272.87 616.66, 1271.75 613.56, 1270.91 607.26 C 1270.07 600.96, 1269.81 596.91, 1270.73 589.51 C 1271.64 582.11, 1272.73 577.88, 1275.49 570.25 C 1278.26 562.62, 1280.15 558.62, 1284.55 551.34 C 1288.95 544.06, 1291.74 540.39, 1297.50 533.86 C 1303.26 527.33, 1306.53 524.30, 1313.36 518.69 C 1320.18 513.09, 1324.04 510.58, 1331.61 505.84 C 1339.19 501.10, 1343.57 498.98, 1351.24 494.99 C 1358.91 491.01, 1363.03 489.27, 1369.97 485.94 C 1376.91 482.60, 1380.25 481.09, 1385.94 478.31 C 1391.64 475.53, 1394.31 474.36, 1398.43 472.04 C 1402.55 469.72, 1404.55 468.92, 1406.55 466.70 C 1408.54 464.48, 1408.71 462.95, 1408.39 460.92 C 1408.07 458.88, 1407.34 457.68, 1404.96 456.54 C 1402.58 455.39, 1400.39 455.06, 1396.49 455.21 C 1392.59 455.35, 1390.05 455.72, 1385.44 457.26 C 1380.83 458.81, 1378.09 460.10, 1373.44 462.94 C 1368.79 465.78, 1366.09 467.77, 1362.20 471.46 C 1358.31 475.16, 1356.39 477.45, 1354.00 481.41 C 1351.60 485.37, 1350.71 487.55, 1350.24 491.26 C 1349.76 494.96, 1349.94 497.18, 1351.62 499.94 C 1353.30 502.69, 1355.16 503.98, 1358.64 505.02 C 1362.11 506.07, 1364.58 505.91, 1368.98 505.18 C 1373.39 504.46, 1375.92 503.57, 1380.67 501.41 C 1385.43 499.24, 1388.26 497.62, 1392.74 494.36 C 1397.22 491.11, 1399.49 488.95, 1403.07 485.15 C 1406.65 481.35, 1408.36 478.93, 1410.63 475.35 C 1412.91 471.78, 1413.80 469.67, 1414.45 467.29 C 1415.10 464.92, 1414.58 463.79, 1413.89 463.48 C 1413.21 463.18, 1411.85 463.66, 1411.02 465.77 C 1410.20 467.89, 1409.83 470.05, 1409.77 474.04 C 1409.70 478.04, 1409.82 481.06, 1410.71 485.74 C 1411.60 490.42, 1412.20 493.11, 1414.20 497.43 C 1416.19 501.74, 1417.60 503.91, 1420.67 507.31 C 1423.74 510.72, 1425.73 512.26, 1429.54 514.47 C 1433.36 516.67, 1435.63 517.37, 1439.76 518.33 C 1443.90 519.29, 1446.16 519.45, 1450.22 519.29 C 1454.27 519.12, 1456.32 518.71, 1460.05 517.51 C 1463.77 516.32, 1465.84 515.25, 1468.84 513.33 C 1471.84 511.42, 1473.32 510.06, 1475.06 507.94 C 1476.81 505.82, 1477.32 503.96, 1477.56 502.74 C 1477.80 501.51, 1477.28 501.27, 1476.26 501.81 C 1475.24 502.35, 1474.33 503.75, 1472.45 505.44 C 1470.56 507.13, 1469.53 508.47, 1466.84 510.26 C 1464.15 512.06, 1462.36 513.22, 1459.00 514.42 C 1455.65 515.61, 1453.79 516.02, 1450.07 516.23 C 1446.35 516.43, 1444.24 516.30, 1440.41 515.46 C 1436.59 514.62, 1434.48 514.01, 1430.94 512.01 C 1427.40 510.02, 1425.55 508.62, 1422.72 505.47 C 1419.90 502.32, 1418.56 500.31, 1416.83 496.26 C 1415.10 492.20, 1414.65 489.63, 1414.07 485.20 C 1413.48 480.77, 1413.83 477.88, 1413.91 474.12 C 1413.98 470.36, 1414.47 468.52, 1414.43 466.41 C 1414.39 464.29, 1414.30 463.62, 1413.70 463.55 C 1413.11 463.49, 1412.56 464.04, 1411.44 466.08 C 1410.31 468.12, 1410.12 470.31, 1408.07 473.78 C 1406.02 477.24, 1404.54 479.69, 1401.18 483.40 C 1397.81 487.10, 1395.58 489.21, 1391.25 492.31 C 1386.93 495.41, 1384.11 496.93, 1379.56 498.90 C 1375.01 500.87, 1372.51 501.57, 1368.51 502.16 C 1364.51 502.75, 1362.38 502.64, 1359.56 501.85 C 1356.74 501.07, 1355.67 500.27, 1354.40 498.23 C 1353.12 496.18, 1352.82 494.72, 1353.21 491.63 C 1353.59 488.55, 1354.17 486.46, 1356.33 482.80 C 1358.48 479.14, 1360.28 476.84, 1363.97 473.33 C 1367.67 469.81, 1370.33 467.84, 1374.81 465.22 C 1379.28 462.61, 1382.01 461.48, 1386.37 460.24 C 1390.73 458.99, 1393.13 459.09, 1396.62 459.00 C 1400.10 458.90, 1401.84 459.30, 1403.78 459.75 C 1405.73 460.19, 1406.22 460.24, 1406.33 461.21 C 1406.45 462.18, 1406.16 462.83, 1404.35 464.60 C 1402.53 466.37, 1401.09 467.63, 1397.24 470.05 C 1393.40 472.46, 1390.71 473.78, 1385.12 476.67 C 1379.53 479.56, 1376.19 481.10, 1369.27 484.51 C 1362.36 487.91, 1358.25 489.67, 1350.57 493.70 C 1342.88 497.72, 1338.49 499.87, 1330.87 504.65 C 1323.25 509.43, 1319.35 511.95, 1312.47 517.61 C 1305.58 523.26, 1302.26 526.32, 1296.42 532.91 C 1290.58 539.50, 1287.76 543.21, 1283.27 550.56 C 1278.78 557.92, 1276.85 561.95, 1273.98 569.69 C 1271.10 577.44, 1269.96 581.70, 1268.92 589.27 C 1267.87 596.84, 1268.02 600.97, 1268.77 607.52 C 1269.52 614.08, 1270.48 617.33, 1272.67 622.05 C 1274.85 626.76, 1276.46 628.94, 1279.70 631.09 C 1282.93 633.24, 1285.25 633.68, 1288.85 632.82 C 1292.45 631.95, 1294.34 630.47, 1297.69 626.76 C 1301.03 623.06, 1302.60 620.45, 1305.57 614.29 C 1308.54 608.13, 1309.97 604.27, 1312.53 595.96 C 1315.09 587.65, 1316.20 582.67, 1318.37 572.75 C 1320.54 562.84, 1321.43 557.09, 1323.39 546.38 C 1325.35 535.68, 1326.34 529.74, 1328.17 519.22 C 1330.00 508.70, 1330.91 503.07, 1332.53 493.77 C 1334.15 484.46, 1334.85 479.82, 1336.27 472.68 C 1337.70 465.54, 1338.74 462.45, 1339.67 458.06 C 1340.61 453.66, 1341.03 452.13, 1340.96 450.72 C 1340.88 449.31, 1340.13 449.54, 1339.30 451.00 C 1338.47 452.46, 1338.25 454.45, 1336.78 458.00 C 1335.32 461.55, 1334.33 464.29, 1331.96 468.75 C 1329.58 473.20, 1328.01 476.00, 1324.93 480.27 C 1321.84 484.53, 1319.84 486.94, 1316.53 490.08 C 1313.22 493.23, 1311.33 494.44, 1308.40 495.98 C 1305.47 497.51, 1304.22 497.79, 1301.90 497.77 C 1299.59 497.75, 1298.73 497.51, 1296.82 495.88 C 1294.90 494.24, 1293.84 492.80, 1292.34 489.59 C 1290.84 486.38, 1290.18 483.92, 1289.33 479.84 C 1288.47 475.75, 1288.48 472.97, 1288.07 469.15 C 1287.66 465.34, 1287.88 462.98, 1287.27 460.78 C 1286.66 458.58, 1285.99 457.89, 1285.02 458.16 C 1284.06 458.42, 1283.32 459.43, 1282.44 462.11 C 1281.55 464.79, 1281.66 467.27, 1280.60 471.55 C 1279.55 475.83, 1278.84 478.96, 1277.17 483.50 C 1275.50 488.04, 1274.40 490.51, 1272.26 494.26 C 1270.11 498.01, 1268.77 499.71, 1266.43 502.23 C 1264.10 504.76, 1262.86 505.72, 1260.58 506.89 C 1258.30 508.05, 1257.11 508.42, 1255.02 508.06 C 1252.92 507.70, 1251.99 507.06, 1250.11 505.08 C 1248.22 503.10, 1247.08 501.70, 1245.60 498.16 C 1244.11 494.61, 1243.36 492.15, 1242.68 487.34 C 1242.01 482.53, 1242.09 479.19, 1242.21 474.09 C 1242.33 468.99, 1242.92 465.93, 1243.29 461.82 C 1243.66 457.71, 1244.22 455.61, 1244.05 453.54 C 1243.88 451.48, 1243.25 450.85, 1242.43 451.49 C 1241.60 452.14, 1241.14 453.54, 1239.93 456.76 C 1238.72 459.98, 1238.35 462.83, 1236.37 467.59 C 1234.39 472.36, 1232.98 475.51, 1230.03 480.57 C 1227.08 485.64, 1225.20 488.63, 1221.63 492.92 C 1218.06 497.22, 1215.91 499.34, 1212.19 502.03 C 1208.46 504.72, 1206.40 505.53, 1203.01 506.36 C 1199.62 507.18, 1197.95 507.00, 1195.24 506.15 C 1192.54 505.30, 1191.21 504.45, 1189.47 502.11 C 1187.73 499.77, 1187.05 498.03, 1186.56 494.47 C 1186.07 490.92, 1186.02 488.53, 1187.02 484.33 C 1188.03 480.13, 1189.10 477.73, 1191.58 473.46 C 1194.05 469.19, 1195.88 466.63, 1199.39 462.99 C 1202.89 459.35, 1205.03 457.63, 1209.09 455.25 C 1213.15 452.88, 1215.76 452.25, 1219.71 451.12 C 1223.65 449.99, 1225.82 450.08, 1228.84 449.61 C 1231.85 449.13, 1233.12 449.18, 1234.79 448.74 C 1236.46 448.31, 1237.17 447.92, 1237.19 447.44 C 1237.20 446.96, 1236.71 446.49, 1234.86 446.35 C 1233.01 446.22, 1231.51 446.38, 1227.93 446.77 C 1224.36 447.16, 1222.06 447.51, 1217.00 448.29 C 1211.93 449.06, 1208.85 449.56, 1202.62 450.65 C 1196.39 451.74, 1192.86 452.45, 1185.85 453.74 C 1178.84 455.04, 1174.93 455.64, 1167.59 457.11 C 1160.25 458.59, 1156.19 459.37, 1149.15 461.11 C 1142.10 462.85, 1138.39 463.75, 1132.35 465.82 C 1126.31 467.89, 1123.43 468.96, 1118.94 471.46 C 1114.44 473.97, 1112.38 475.32, 1109.89 478.34 C 1107.39 481.36, 1106.62 483.03, 1106.45 486.55 C 1106.28 490.06, 1107.12 492.06, 1109.03 495.91 C 1110.95 499.75, 1112.71 502.00, 1116.01 505.78 C 1119.30 509.55, 1121.64 511.63, 1125.51 514.79 C 1129.39 517.95, 1131.53 519.66, 1135.39 521.57 C 1139.25 523.49, 1141.36 524.24, 1144.83 524.37 C 1148.29 524.50, 1150.12 524.04, 1152.72 522.21 C 1155.31 520.38, 1156.16 518.99, 1157.79 515.21 C 1159.42 511.42, 1160.04 509.00, 1160.86 503.29 C 1161.68 497.58, 1161.87 494.00, 1161.88 486.67 C 1161.88 479.33, 1161.55 475.04, 1160.90 466.61 C 1160.24 458.18, 1159.71 453.40, 1158.60 444.53 C 1157.49 435.65, 1156.67 430.74, 1155.34 422.25 C 1154.02 413.76, 1153.11 409.23, 1151.98 402.09 C 1150.84 394.96, 1150.33 391.60, 1149.67 386.57 C 1149.02 381.55, 1149.31 379.59, 1148.68 376.99 C 1148.06 374.38, 1147.23 374.24, 1146.54 373.56 C 1145.85 372.87, 1145.54 373.49, 1145.23 373.57 C 1144.92 373.65, 1145.19 373.80, 1144.97 373.95" style="stroke: black; fill: black;"/><path d="M 1499.57,516.18 C 1499.23 515.63, 1498.93 515.02, 1498.38 514.71 C 1497.82 514.39, 1497.00 514.31, 1496.81 514.62 C 1496.63 514.93, 1497.20 515.74, 1497.44 516.26 C 1497.68 516.79, 1497.89 516.83, 1498.01 517.25 C 1498.14 517.66, 1497.81 517.93, 1498.05 518.34 C 1498.29 518.76, 1498.68 518.95, 1499.21 519.31 C 1499.74 519.67, 1500.40 520.16, 1500.70 520.13 C 1500.99 520.10, 1500.81 519.70, 1500.69 519.17 C 1500.56 518.63, 1500.30 518.06, 1500.08 517.46 C 1499.85 516.86, 1499.91 516.73, 1499.57 516.18" style="stroke: black; fill: black;"/></svg>