<svg xmlns="http://www.w3.org/2000/svg" id="canvas" viewBox="282.773 326.898 1082.543 198.289">
<style>
    path {
      stroke-dasharray: 2000;
      stroke-dashoffset: 2000;
      -webkit-animation: dash 5s ease infinite;
      animation: dash 5s ease infinite;
    }

    @-webkit-keyframes dash {
      to {
        stroke-dashoffset: 0;
      }
    }
    @keyframes dash {
      to {
        stroke-dashoffset: 0;
      }
    }
</style>
<g>
	<path stroke-linecap="null" stroke-linejoin="null" stroke-dasharray="null" stroke-width="5" stroke="#000000" fill="none" d="M 328.36,362.59 C 326.94 363.73, 325.51 365.66, 322.79 369.46 C 320.08 373.26, 318.07 375.97, 314.80 381.58 C 311.54 387.19, 309.52 391.00, 306.48 397.51 C 303.45 404.02, 302.03 407.68, 299.63 414.14 C 297.23 420.61, 296.32 423.93, 294.48 429.82 C 292.65 435.71, 291.73 438.45, 290.45 443.58 C 289.17 448.72, 288.88 451.21, 288.09 455.49 C 287.30 459.77, 286.97 461.65, 286.51 464.99 C 286.04 468.34, 285.69 469.95, 285.79 472.22 C 285.89 474.49, 286.45 475.53, 287.02 476.35 C 287.59 477.16, 288.32 476.38, 288.63 476.28 C 288.94 476.17, 288.56 475.89, 288.57 475.83 C 288.58 475.76, 288.46 476.65, 288.68 475.96 C 288.90 475.27, 289.40 474.48, 289.66 472.36 C 289.93 470.24, 289.77 468.65, 290.00 465.36 C 290.24 462.07, 290.29 460.17, 290.83 455.92 C 291.38 451.67, 291.60 449.22, 292.73 444.12 C 293.86 439.03, 294.73 436.29, 296.49 430.44 C 298.25 424.58, 299.14 421.25, 301.54 414.86 C 303.93 408.46, 305.39 404.85, 308.46 398.44 C 311.53 392.03, 313.60 388.31, 316.90 382.82 C 320.20 377.32, 322.36 374.78, 324.96 370.97 C 327.57 367.16, 329.24 365.42, 329.92 363.75 C 330.60 362.07, 329.79 361.45, 328.36 362.59"/>
	<path stroke-linecap="null" stroke-linejoin="null" stroke-dasharray="null" stroke-width="5" stroke="#000000" fill="none" d="M 331.57,389.12 C 331.92 389.18, 331.44 389.22, 331.53 389.47 C 331.63 389.73, 331.38 390.12, 332.04 390.39 C 332.71 390.65, 333.25 390.70, 334.86 390.79 C 336.46 390.87, 337.56 390.85, 340.08 390.81 C 342.60 390.76, 344.29 390.71, 347.44 390.57 C 350.60 390.43, 352.30 390.26, 355.83 390.09 C 359.37 389.93, 361.43 389.80, 365.10 389.73 C 368.78 389.67, 370.75 389.77, 374.22 389.75 C 377.69 389.74, 379.37 389.75, 382.44 389.66 C 385.51 389.56, 387.16 389.54, 389.57 389.27 C 391.98 389.00, 393.00 388.74, 394.49 388.31 C 395.97 387.89, 396.52 387.63, 397.00 387.15 C 397.48 386.67, 397.44 386.30, 396.89 385.91 C 396.35 385.52, 395.79 385.43, 394.27 385.21 C 392.75 384.99, 391.70 384.79, 389.29 384.83 C 386.88 384.87, 385.26 385.20, 382.24 385.40 C 379.21 385.59, 377.59 385.74, 374.16 385.83 C 370.72 385.92, 368.74 385.82, 365.06 385.83 C 361.38 385.85, 359.27 385.96, 355.76 385.92 C 352.25 385.88, 350.62 385.84, 347.50 385.63 C 344.37 385.42, 342.71 384.97, 340.14 384.88 C 337.57 384.78, 336.40 384.95, 334.66 385.15 C 332.91 385.36, 332.39 385.39, 331.41 385.89 C 330.43 386.38, 330.09 386.97, 329.77 387.62 C 329.44 388.28, 329.41 388.88, 329.77 389.18 C 330.13 389.48, 331.22 389.06, 331.57 389.12"/>
	<path stroke-linecap="null" stroke-linejoin="null" stroke-dasharray="null" stroke-width="5" stroke="#000000" fill="none" d="M 350.19,381.41 C 349.32 381.94, 348.60 382.82, 347.59 384.78 C 346.58 386.74, 346.15 388.04, 345.16 391.22 C 344.17 394.39, 343.66 396.50, 342.64 400.65 C 341.63 404.80, 341.17 407.32, 340.08 411.95 C 338.99 416.58, 338.38 419.10, 337.20 423.81 C 336.01 428.51, 335.39 430.93, 334.16 435.49 C 332.92 440.04, 332.29 442.36, 331.04 446.57 C 329.79 450.78, 329.08 452.84, 327.90 456.55 C 326.71 460.27, 326.11 462.01, 325.12 465.14 C 324.12 468.28, 323.48 469.71, 322.92 472.24 C 322.36 474.77, 322.39 476.03, 322.32 477.79 C 322.24 479.55, 322.35 480.02, 322.53 481.03 C 322.72 482.04, 322.86 482.49, 323.24 482.85 C 323.62 483.21, 324.06 483.17, 324.43 482.84 C 324.81 482.51, 324.78 482.12, 325.11 481.22 C 325.43 480.31, 325.66 479.92, 326.05 478.31 C 326.44 476.70, 326.52 475.58, 327.05 473.16 C 327.59 470.73, 327.94 469.31, 328.74 466.18 C 329.53 463.04, 330.00 461.24, 331.03 457.48 C 332.06 453.73, 332.73 451.64, 333.90 447.39 C 335.08 443.14, 335.69 440.80, 336.91 436.22 C 338.13 431.65, 338.75 429.23, 339.99 424.53 C 341.24 419.83, 341.89 417.30, 343.14 412.73 C 344.38 408.15, 344.96 405.67, 346.23 401.66 C 347.50 397.64, 348.45 395.72, 349.50 392.63 C 350.55 389.54, 351.00 388.32, 351.49 386.22 C 351.98 384.12, 352.22 383.10, 351.96 382.14 C 351.70 381.18, 351.07 380.88, 350.19 381.41"/>
	<path stroke-linecap="null" stroke-linejoin="null" stroke-dasharray="null" stroke-width="5" stroke="#000000" fill="none" d="M 400.89,450.80 C 401.69 451.02, 402.41 450.68, 403.87 450.25 C 405.33 449.82, 406.10 449.50, 408.18 448.65 C 410.26 447.80, 411.69 447.17, 414.28 445.99 C 416.87 444.81, 418.35 444.08, 421.12 442.76 C 423.89 441.43, 425.49 440.74, 428.12 439.38 C 430.74 438.01, 432.13 437.39, 434.24 435.92 C 436.34 434.45, 437.36 433.71, 438.65 432.05 C 439.94 430.39, 440.50 429.37, 440.71 427.61 C 440.92 425.86, 440.81 424.72, 439.68 423.26 C 438.56 421.80, 437.51 420.83, 435.07 420.31 C 432.63 419.80, 431.00 419.99, 427.49 420.68 C 423.98 421.37, 421.88 422.08, 417.54 423.76 C 413.19 425.44, 410.49 426.46, 405.76 429.09 C 401.03 431.71, 398.34 433.57, 393.90 436.88 C 389.46 440.20, 387.11 442.16, 383.57 445.67 C 380.03 449.18, 378.46 450.96, 376.19 454.44 C 373.92 457.91, 372.89 459.77, 372.21 463.04 C 371.53 466.31, 371.61 468.10, 372.80 470.80 C 374.00 473.50, 375.33 474.74, 378.19 476.54 C 381.05 478.33, 383.07 478.90, 387.09 479.79 C 391.10 480.67, 393.56 480.79, 398.26 480.97 C 402.97 481.14, 405.86 481.01, 410.62 480.66 C 415.38 480.32, 417.75 480.11, 422.04 479.26 C 426.33 478.41, 428.62 477.59, 432.07 476.42 C 435.52 475.26, 437.11 474.65, 439.28 473.42 C 441.44 472.19, 442.30 471.15, 442.88 470.27 C 443.46 469.39, 443.18 469.01, 442.18 469.02 C 441.17 469.03, 440.11 469.53, 437.86 470.33 C 435.60 471.13, 434.18 471.86, 430.89 473.03 C 427.60 474.20, 425.49 475.26, 421.39 476.17 C 417.30 477.08, 415.00 477.29, 410.41 477.59 C 405.81 477.89, 402.92 477.95, 398.42 477.68 C 393.92 477.41, 391.55 477.15, 387.91 476.26 C 384.27 475.36, 382.60 474.58, 380.22 473.20 C 377.84 471.81, 376.90 471.22, 375.99 469.34 C 375.08 467.45, 375.09 466.41, 375.65 463.75 C 376.21 461.10, 376.80 459.30, 378.77 456.07 C 380.74 452.84, 382.16 451.01, 385.51 447.60 C 388.86 444.20, 391.18 442.24, 395.50 439.04 C 399.82 435.85, 402.50 434.04, 407.13 431.63 C 411.76 429.23, 414.45 428.33, 418.67 427.02 C 422.89 425.71, 425.09 425.55, 428.25 425.10 C 431.40 424.65, 432.64 424.70, 434.45 424.77 C 436.26 424.84, 436.68 425.02, 437.29 425.45 C 437.89 425.89, 437.80 426.16, 437.48 426.94 C 437.16 427.72, 436.82 428.33, 435.68 429.37 C 434.54 430.40, 433.73 430.96, 431.78 432.10 C 429.84 433.24, 428.47 433.82, 425.94 435.06 C 423.40 436.29, 421.88 437.10, 419.10 438.27 C 416.33 439.43, 414.72 439.78, 412.06 440.88 C 409.40 441.98, 407.86 442.60, 405.81 443.76 C 403.76 444.91, 403.01 445.56, 401.82 446.64 C 400.63 447.72, 400.05 448.31, 399.86 449.14 C 399.68 449.97, 400.09 450.58, 400.89 450.80"/>
	<path stroke-linecap="null" stroke-linejoin="null" stroke-dasharray="null" stroke-width="5" stroke="#000000" fill="none" d="M 498.91,364.78 C 498.36 365.03, 498.28 364.89, 497.53 366.25 C 496.78 367.61, 496.30 368.48, 495.16 371.57 C 494.02 374.66, 493.58 377.03, 491.83 381.69 C 490.08 386.34, 488.95 389.28, 486.41 394.84 C 483.87 400.39, 481.99 403.69, 479.12 409.47 C 476.24 415.25, 474.74 418.33, 472.03 423.75 C 469.32 429.16, 467.80 431.87, 465.57 436.54 C 463.34 441.22, 462.42 443.41, 460.88 447.12 C 459.35 450.82, 458.46 452.39, 457.88 455.08 C 457.31 457.76, 457.61 458.92, 458.00 460.54 C 458.40 462.16, 459.04 462.50, 459.85 463.17 C 460.66 463.83, 461.34 463.88, 462.04 463.86 C 462.75 463.84, 463.21 463.55, 463.38 463.08 C 463.55 462.60, 463.14 461.83, 462.87 461.50 C 462.60 461.17, 462.32 461.43, 462.01 461.43 C 461.71 461.42, 461.58 461.72, 461.35 461.46 C 461.11 461.21, 460.80 461.28, 460.84 460.17 C 460.87 459.05, 460.94 458.29, 461.51 455.90 C 462.09 453.50, 462.43 451.85, 463.69 448.18 C 464.95 444.52, 465.75 442.27, 467.82 437.58 C 469.90 432.90, 471.40 430.18, 474.07 424.76 C 476.74 419.35, 478.23 416.27, 481.17 410.51 C 484.11 404.75, 486.01 401.46, 488.76 395.96 C 491.51 390.46, 492.74 387.54, 494.91 383.00 C 497.08 378.45, 498.38 376.39, 499.60 373.25 C 500.82 370.10, 500.86 368.91, 500.99 367.26 C 501.12 365.62, 500.68 365.51, 500.26 365.01 C 499.84 364.51, 499.45 364.53, 498.91 364.78"/>
	<path stroke-linecap="null" stroke-linejoin="null" stroke-dasharray="null" stroke-width="5" stroke="#000000" fill="none" d="M 538.65,363.77 C 537.92 363.76, 537.35 363.76, 536.15 364.84 C 534.96 365.92, 534.11 366.64, 532.67 369.18 C 531.23 371.71, 530.77 373.65, 528.94 377.50 C 527.10 381.36, 525.91 383.69, 523.50 388.47 C 521.08 393.24, 519.65 396.21, 516.88 401.39 C 514.10 406.57, 512.42 409.22, 509.64 414.37 C 506.85 419.53, 505.30 422.21, 502.96 427.17 C 500.61 432.13, 499.69 434.78, 497.90 439.18 C 496.11 443.57, 495.16 445.60, 494.00 449.16 C 492.83 452.71, 492.36 454.21, 492.07 456.95 C 491.79 459.69, 492.14 460.91, 492.57 462.86 C 493.01 464.80, 493.47 465.62, 494.23 466.69 C 494.99 467.76, 495.74 468.06, 496.39 468.19 C 497.03 468.32, 497.36 467.87, 497.45 467.32 C 497.53 466.76, 497.08 466.43, 496.81 465.42 C 496.55 464.40, 496.32 463.86, 496.12 462.23 C 495.93 460.61, 495.65 459.73, 495.84 457.30 C 496.03 454.87, 496.17 453.51, 497.09 450.08 C 498.01 446.66, 498.83 444.54, 500.44 440.16 C 502.06 435.79, 502.92 433.13, 505.18 428.20 C 507.44 423.27, 508.95 420.63, 511.74 415.51 C 514.52 410.39, 516.23 407.74, 519.10 402.61 C 521.97 397.47, 523.46 394.51, 526.09 389.85 C 528.73 385.20, 530.03 382.94, 532.28 379.33 C 534.52 375.71, 535.90 374.27, 537.29 371.80 C 538.69 369.32, 538.74 368.35, 539.24 366.96 C 539.74 365.58, 539.91 365.52, 539.79 364.88 C 539.67 364.24, 539.37 363.78, 538.65 363.77"/>
	<path stroke-linecap="null" stroke-linejoin="null" stroke-dasharray="null" stroke-width="5" stroke="#000000" fill="none" d="M 581.89,428.14 C 581.88 427.31, 581.53 426.47, 580.52 425.47 C 579.50 424.46, 578.73 423.81, 576.83 423.11 C 574.94 422.41, 573.49 422.03, 571.04 421.99 C 568.59 421.94, 567.36 422.10, 564.59 422.89 C 561.82 423.68, 560.30 424.37, 557.19 425.94 C 554.08 427.51, 552.19 428.47, 549.03 430.73 C 545.87 433.00, 544.13 434.49, 541.39 437.27 C 538.66 440.06, 537.21 441.68, 535.36 444.67 C 533.51 447.65, 532.72 449.34, 532.16 452.20 C 531.59 455.06, 531.59 456.56, 532.53 458.96 C 533.48 461.35, 534.50 462.65, 536.88 464.17 C 539.27 465.70, 541.07 466.15, 544.45 466.57 C 547.83 466.99, 549.95 466.87, 553.79 466.29 C 557.63 465.70, 559.82 465.09, 563.66 463.66 C 567.51 462.23, 569.54 461.12, 573.02 459.12 C 576.50 457.12, 578.15 455.94, 581.06 453.65 C 583.97 451.37, 585.26 450.16, 587.58 447.70 C 589.90 445.25, 591.11 443.95, 592.66 441.37 C 594.22 438.79, 594.64 437.28, 595.34 434.79 C 596.03 432.30, 596.25 430.98, 596.13 428.92 C 596.02 426.86, 595.46 425.87, 594.77 424.47 C 594.09 423.06, 593.56 422.57, 592.70 421.90 C 591.85 421.22, 591.23 421.11, 590.48 421.09 C 589.74 421.06, 589.23 421.34, 588.98 421.77 C 588.73 422.20, 589.04 422.89, 589.23 423.25 C 589.42 423.61, 589.72 423.38, 589.94 423.56 C 590.16 423.75, 590.06 423.69, 590.33 424.18 C 590.59 424.67, 590.91 425.04, 591.26 426.01 C 591.62 426.98, 592.12 427.52, 592.11 429.03 C 592.09 430.54, 591.83 431.53, 591.18 433.55 C 590.53 435.58, 590.17 436.85, 588.87 439.16 C 587.57 441.47, 586.70 442.76, 584.69 445.09 C 582.68 447.43, 581.49 448.64, 578.80 450.83 C 576.12 453.02, 574.53 454.18, 571.26 456.06 C 567.98 457.94, 566.02 458.98, 562.43 460.24 C 558.83 461.49, 556.75 461.95, 553.27 462.33 C 549.78 462.71, 547.87 462.49, 545.00 462.14 C 542.13 461.79, 540.77 461.48, 538.93 460.59 C 537.10 459.70, 536.37 459.18, 535.81 457.69 C 535.24 456.19, 535.52 455.29, 536.11 453.11 C 536.71 450.93, 537.17 449.39, 538.78 446.76 C 540.38 444.13, 541.62 442.51, 544.12 439.96 C 546.63 437.41, 548.32 436.02, 551.31 434.02 C 554.30 432.01, 556.16 431.20, 559.07 429.94 C 561.98 428.67, 563.50 428.25, 565.86 427.69 C 568.22 427.13, 568.99 427.03, 570.86 427.14 C 572.74 427.24, 573.74 427.82, 575.23 428.20 C 576.72 428.57, 577.25 428.71, 578.31 429.00 C 579.38 429.28, 579.82 429.79, 580.54 429.62 C 581.25 429.45, 581.89 428.97, 581.89 428.14"/>
	<path stroke-linecap="null" stroke-linejoin="null" stroke-dasharray="null" stroke-width="5" stroke="#000000" fill="none" d="M 623.60,464.69 C 622.34 465.51, 621.14 467.11, 618.90 469.95 C 616.66 472.79, 615.17 475.17, 612.40 478.90 C 609.64 482.62, 607.64 485.07, 605.08 488.59 C 602.52 492.10, 601.20 493.86, 599.62 496.47 C 598.03 499.08, 597.41 500.44, 597.15 501.64 C 596.90 502.85, 597.29 503.12, 598.34 502.49 C 599.39 501.85, 600.48 500.80, 602.41 498.45 C 604.35 496.10, 605.44 494.22, 608.01 490.72 C 610.57 487.23, 612.48 484.73, 615.23 480.99 C 617.99 477.24, 619.78 475.05, 621.77 472.02 C 623.77 468.99, 624.84 467.30, 625.21 465.83 C 625.57 464.36, 624.86 463.86, 623.60 464.69"/>
	<path stroke-linecap="null" stroke-linejoin="null" stroke-dasharray="null" stroke-width="5" stroke="#000000" fill="none" d="M 695.77,349.06 C 695.04 349.72, 694.78 350.53, 693.91 352.68 C 693.04 354.83, 692.37 356.37, 691.41 359.81 C 690.46 363.26, 690.22 365.67, 689.12 369.91 C 688.01 374.14, 687.41 376.44, 685.90 380.98 C 684.40 385.51, 683.35 388.00, 681.59 392.59 C 679.84 397.18, 678.94 399.63, 677.13 403.92 C 675.31 408.21, 674.30 410.15, 672.51 414.04 C 670.73 417.92, 669.76 419.90, 668.19 423.32 C 666.63 426.75, 665.87 428.41, 664.69 431.18 C 663.51 433.95, 662.91 435.19, 662.31 437.18 C 661.71 439.18, 661.62 439.95, 661.70 441.15 C 661.78 442.34, 662.34 442.69, 662.71 443.15 C 663.08 443.60, 663.32 443.43, 663.57 443.40 C 663.81 443.38, 663.82 443.16, 663.94 443.01 C 664.06 442.87, 664.04 442.97, 664.17 442.67 C 664.30 442.37, 664.23 442.37, 664.59 441.54 C 664.94 440.71, 665.16 440.28, 665.94 438.52 C 666.73 436.76, 667.43 435.51, 668.51 432.73 C 669.59 429.95, 669.97 428.14, 671.32 424.64 C 672.67 421.15, 673.58 419.19, 675.27 415.26 C 676.96 411.34, 677.97 409.36, 679.76 405.03 C 681.56 400.70, 682.45 398.23, 684.26 393.62 C 686.06 389.01, 687.12 386.52, 688.77 381.98 C 690.43 377.44, 691.18 375.10, 692.55 370.91 C 693.92 366.73, 694.52 364.48, 695.60 361.06 C 696.68 357.64, 697.56 356.15, 697.95 353.82 C 698.35 351.49, 698.01 350.35, 697.57 349.40 C 697.14 348.45, 696.51 348.41, 695.77 349.06"/>
	<path stroke-linecap="null" stroke-linejoin="null" stroke-dasharray="null" stroke-width="5" stroke="#000000" fill="none" d="M 768.53,330.02 C 767.75 330.30, 767.23 330.72, 766.24 332.12 C 765.25 333.51, 764.62 334.80, 763.59 337.00 C 762.56 339.19, 761.83 340.67, 761.10 343.09 C 760.36 345.51, 759.74 347.69, 759.91 349.11 C 760.08 350.52, 760.69 350.87, 761.96 350.16 C 763.22 349.45, 764.78 347.72, 766.23 345.54 C 767.69 343.37, 768.42 341.66, 769.24 339.29 C 770.06 336.91, 770.17 335.38, 770.35 333.66 C 770.53 331.94, 770.51 331.42, 770.15 330.69 C 769.79 329.96, 769.32 329.73, 768.53 330.02"/>
	<path stroke-linecap="null" stroke-linejoin="null" stroke-dasharray="null" stroke-width="5" stroke="#000000" fill="none" d="M 798.01,408.25 C 797.17 408.60, 796.61 409.25, 795.44 410.83 C 794.27 412.41, 793.59 413.53, 792.16 416.14 C 790.73 418.74, 789.94 420.69, 788.30 423.85 C 786.65 427.01, 785.79 428.91, 783.95 431.93 C 782.10 434.94, 780.71 436.39, 779.06 438.94 C 777.40 441.49, 776.59 442.75, 775.65 444.67 C 774.72 446.60, 774.37 447.42, 774.38 448.57 C 774.39 449.72, 774.80 450.29, 775.70 450.41 C 776.61 450.53, 777.46 450.39, 778.91 449.18 C 780.36 447.98, 781.09 446.80, 782.97 444.39 C 784.85 441.97, 785.86 440.15, 788.30 437.10 C 790.73 434.06, 792.13 432.19, 795.13 429.16 C 798.13 426.13, 799.92 424.59, 803.30 421.95 C 806.67 419.31, 808.72 418.09, 811.99 415.97 C 815.25 413.85, 816.90 412.78, 819.62 411.36 C 822.33 409.95, 823.72 409.48, 825.54 408.89 C 827.35 408.31, 827.98 408.11, 828.69 408.44 C 829.41 408.77, 829.27 409.17, 829.11 410.54 C 828.94 411.91, 828.59 413.05, 827.87 415.29 C 827.15 417.53, 826.54 418.93, 825.51 421.74 C 824.48 424.55, 823.84 426.45, 822.70 429.35 C 821.56 432.25, 820.79 433.67, 819.82 436.24 C 818.86 438.81, 818.07 440.21, 817.86 442.21 C 817.65 444.20, 817.93 445.18, 818.78 446.23 C 819.62 447.28, 820.43 447.65, 822.07 447.44 C 823.71 447.23, 824.82 446.75, 826.96 445.17 C 829.09 443.60, 830.08 442.04, 832.74 439.57 C 835.40 437.09, 836.99 435.49, 840.26 432.78 C 843.53 430.07, 845.55 428.46, 849.10 426.02 C 852.65 423.58, 854.71 422.33, 858.02 420.59 C 861.32 418.85, 863.22 418.28, 865.63 417.30 C 868.04 416.33, 868.97 415.89, 870.05 415.71 C 871.12 415.53, 871.08 415.63, 871.01 416.42 C 870.93 417.20, 870.43 417.84, 869.68 419.63 C 868.93 421.41, 868.35 422.81, 867.26 425.32 C 866.18 427.83, 865.49 429.49, 864.25 432.16 C 863.02 434.82, 862.22 436.21, 861.08 438.65 C 859.94 441.09, 859.25 442.31, 858.55 444.37 C 857.86 446.43, 857.67 447.47, 857.59 448.94 C 857.50 450.41, 857.77 451.13, 858.14 451.71 C 858.52 452.30, 858.98 452.27, 859.48 451.88 C 859.98 451.49, 860.02 450.91, 860.64 449.76 C 861.27 448.61, 861.64 447.91, 862.61 446.13 C 863.57 444.34, 864.21 443.18, 865.47 440.85 C 866.72 438.52, 867.46 437.15, 868.89 434.48 C 870.33 431.82, 871.56 430.30, 872.64 427.53 C 873.73 424.77, 874.14 423.03, 874.31 420.65 C 874.48 418.27, 874.30 417.17, 873.50 415.64 C 872.70 414.10, 872.18 413.42, 870.32 412.96 C 868.46 412.49, 867.00 412.41, 864.20 413.32 C 861.39 414.22, 859.68 415.48, 856.28 417.46 C 852.88 419.44, 850.84 420.74, 847.19 423.23 C 843.53 425.71, 841.48 427.32, 838.00 429.89 C 834.52 432.46, 832.70 433.86, 829.79 436.08 C 826.89 438.30, 825.30 439.29, 823.49 441.01 C 821.68 442.72, 821.33 443.78, 820.72 444.66 C 820.11 445.54, 820.24 445.68, 820.44 445.41 C 820.63 445.14, 820.89 444.78, 821.69 443.33 C 822.49 441.87, 823.35 440.58, 824.44 438.14 C 825.53 435.70, 825.95 434.03, 827.13 431.12 C 828.31 428.21, 829.17 426.50, 830.33 423.59 C 831.49 420.67, 832.45 419.24, 832.94 416.54 C 833.44 413.84, 833.41 412.17, 832.82 410.08 C 832.23 407.99, 831.61 407.07, 829.99 406.10 C 828.38 405.14, 827.18 404.89, 824.73 405.25 C 822.29 405.61, 820.70 406.32, 817.78 407.90 C 814.85 409.48, 813.38 410.85, 810.08 413.15 C 806.79 415.44, 804.76 416.68, 801.29 419.38 C 797.82 422.09, 795.94 423.69, 792.73 426.69 C 789.51 429.68, 788.03 431.51, 785.22 434.36 C 782.40 437.20, 780.66 438.50, 778.65 440.91 C 776.65 443.31, 775.92 444.65, 775.17 446.37 C 774.43 448.09, 774.65 448.85, 774.93 449.51 C 775.21 450.17, 775.69 450.21, 776.55 449.68 C 777.42 449.15, 778.02 448.53, 779.27 446.87 C 780.52 445.21, 781.14 443.91, 782.79 441.36 C 784.44 438.81, 785.61 437.18, 787.50 434.12 C 789.40 431.06, 790.39 429.17, 792.26 426.07 C 794.12 422.97, 795.44 421.30, 796.83 418.62 C 798.21 415.95, 798.62 414.61, 799.19 412.70 C 799.76 410.79, 799.91 409.96, 799.68 409.07 C 799.44 408.17, 798.86 407.89, 798.01 408.25"/>
	<path stroke-linecap="null" stroke-linejoin="null" stroke-dasharray="null" stroke-width="5" stroke="#000000" fill="none" d="M 1054.71,358.33 C 1054.19 358.02, 1053.64 358.27, 1053.16 358.69 C 1052.68 359.10, 1052.56 359.67, 1052.30 360.40 C 1052.05 361.14, 1052.04 361.26, 1051.87 362.36 C 1051.69 363.45, 1051.62 364.03, 1051.44 365.86 C 1051.26 367.70, 1051.20 368.92, 1050.97 371.52 C 1050.75 374.12, 1050.73 375.59, 1050.31 378.86 C 1049.89 382.13, 1049.67 384.07, 1048.86 387.87 C 1048.04 391.67, 1047.46 393.67, 1046.23 397.85 C 1045.00 402.03, 1044.29 404.44, 1042.69 408.78 C 1041.10 413.13, 1040.12 415.31, 1038.26 419.58 C 1036.41 423.85, 1035.59 426.15, 1033.41 430.14 C 1031.24 434.12, 1029.92 436.01, 1027.41 439.50 C 1024.89 442.99, 1023.48 444.56, 1020.85 447.59 C 1018.21 450.62, 1017.02 452.15, 1014.23 454.65 C 1011.44 457.15, 1009.90 458.27, 1006.91 460.08 C 1003.91 461.89, 1002.30 462.52, 999.26 463.70 C 996.23 464.87, 994.63 465.37, 991.73 465.96 C 988.83 466.55, 987.22 466.59, 984.77 466.66 C 982.32 466.74, 981.11 466.61, 979.48 466.32 C 977.84 466.03, 977.42 465.83, 976.58 465.23 C 975.74 464.63, 975.75 464.05, 975.28 463.33 C 974.81 462.62, 974.77 461.93, 974.23 461.65 C 973.68 461.37, 972.95 461.36, 972.56 461.95 C 972.17 462.54, 971.93 463.42, 972.29 464.62 C 972.64 465.82, 973.10 466.84, 974.34 467.95 C 975.59 469.06, 976.40 469.53, 978.50 470.19 C 980.61 470.84, 982.04 471.25, 984.87 471.21 C 987.70 471.18, 989.50 470.81, 992.66 470.01 C 995.83 469.20, 997.47 468.58, 1000.69 467.19 C 1003.91 465.80, 1005.62 465.09, 1008.77 463.07 C 1011.92 461.05, 1013.57 459.78, 1016.45 457.09 C 1019.34 454.40, 1020.54 452.79, 1023.21 449.62 C 1025.89 446.44, 1027.29 444.85, 1029.84 441.23 C 1032.38 437.61, 1033.74 435.62, 1035.96 431.52 C 1038.18 427.42, 1039.01 425.08, 1040.92 420.75 C 1042.83 416.41, 1043.83 414.22, 1045.51 409.84 C 1047.20 405.46, 1047.96 403.04, 1049.35 398.82 C 1050.73 394.61, 1051.37 392.59, 1052.44 388.76 C 1053.52 384.94, 1053.91 382.99, 1054.73 379.69 C 1055.54 376.39, 1056.05 374.95, 1056.52 372.26 C 1056.99 369.56, 1057.04 368.18, 1057.09 366.21 C 1057.15 364.25, 1056.96 363.53, 1056.81 362.42 C 1056.67 361.32, 1056.56 361.07, 1056.38 360.71 C 1056.21 360.34, 1056.07 360.69, 1055.93 360.60 C 1055.80 360.51, 1055.96 360.71, 1055.72 360.26 C 1055.47 359.81, 1055.22 358.64, 1054.71 358.33"/>
	<path stroke-linecap="null" stroke-linejoin="null" stroke-dasharray="null" stroke-width="5" stroke="#000000" fill="none" d="M 1117.75,420.91 C 1117.61 420.07, 1117.06 419.41, 1115.95 418.43 C 1114.83 417.45, 1114.08 416.77, 1112.18 416.02 C 1110.27 415.26, 1108.89 414.79, 1106.42 414.66 C 1103.95 414.52, 1102.62 414.66, 1099.84 415.33 C 1097.06 416.01, 1095.55 416.43, 1092.54 418.01 C 1089.53 419.59, 1087.88 420.83, 1084.79 423.25 C 1081.69 425.67, 1079.90 427.30, 1077.06 430.10 C 1074.23 432.90, 1072.82 434.46, 1070.60 437.26 C 1068.37 440.06, 1067.19 441.38, 1065.93 444.10 C 1064.66 446.81, 1064.27 448.37, 1064.26 450.83 C 1064.25 453.29, 1064.64 454.53, 1065.88 456.41 C 1067.11 458.29, 1068.05 459.19, 1070.42 460.23 C 1072.79 461.27, 1074.46 461.64, 1077.74 461.61 C 1081.02 461.58, 1083.09 461.03, 1086.82 460.09 C 1090.56 459.15, 1092.57 458.45, 1096.42 456.90 C 1100.27 455.36, 1102.36 454.35, 1106.06 452.36 C 1109.76 450.37, 1111.71 449.14, 1114.92 446.94 C 1118.13 444.75, 1119.63 443.56, 1122.12 441.38 C 1124.60 439.20, 1125.78 438.17, 1127.33 436.04 C 1128.89 433.90, 1129.60 432.50, 1129.88 430.68 C 1130.17 428.87, 1129.73 427.68, 1128.77 426.94 C 1127.82 426.20, 1126.71 426.14, 1125.12 426.96 C 1123.52 427.79, 1122.36 428.75, 1120.81 431.08 C 1119.25 433.41, 1118.66 435.41, 1117.35 438.63 C 1116.05 441.85, 1115.36 443.84, 1114.29 447.19 C 1113.22 450.54, 1112.44 452.37, 1112.02 455.38 C 1111.60 458.39, 1111.70 459.87, 1112.20 462.26 C 1112.69 464.64, 1113.16 465.70, 1114.49 467.29 C 1115.82 468.89, 1117.11 469.50, 1118.86 470.23 C 1120.61 470.96, 1121.71 470.97, 1123.25 470.96 C 1124.80 470.96, 1125.51 470.69, 1126.58 470.21 C 1127.65 469.72, 1128.32 469.21, 1128.61 468.54 C 1128.90 467.87, 1128.59 467.23, 1128.04 466.86 C 1127.48 466.48, 1126.75 466.70, 1125.82 466.65 C 1124.89 466.59, 1124.51 466.66, 1123.40 466.56 C 1122.30 466.47, 1121.55 466.50, 1120.31 466.17 C 1119.07 465.83, 1118.08 465.79, 1117.22 464.89 C 1116.35 464.00, 1116.13 463.44, 1116.00 461.68 C 1115.87 459.93, 1116.06 458.75, 1116.58 456.14 C 1117.09 453.52, 1117.48 451.71, 1118.57 448.62 C 1119.65 445.54, 1120.55 443.63, 1122.00 440.71 C 1123.45 437.79, 1124.68 436.28, 1125.82 434.03 C 1126.96 431.78, 1127.31 430.69, 1127.71 429.47 C 1128.10 428.24, 1128.02 427.88, 1127.79 427.89 C 1127.56 427.89, 1127.33 428.37, 1126.56 429.49 C 1125.79 430.60, 1125.36 431.67, 1123.94 433.47 C 1122.52 435.27, 1121.67 436.37, 1119.46 438.48 C 1117.25 440.59, 1115.88 441.86, 1112.88 444.03 C 1109.87 446.21, 1107.99 447.43, 1104.44 449.34 C 1100.89 451.24, 1098.83 452.19, 1095.13 453.55 C 1091.43 454.90, 1089.43 455.45, 1085.94 456.11 C 1082.45 456.77, 1080.51 456.82, 1077.69 456.85 C 1074.87 456.89, 1073.65 456.76, 1071.86 456.28 C 1070.07 455.80, 1069.52 455.50, 1068.75 454.45 C 1067.97 453.40, 1067.79 452.73, 1067.99 451.03 C 1068.20 449.33, 1068.65 448.23, 1069.78 445.95 C 1070.91 443.67, 1071.68 442.27, 1073.67 439.64 C 1075.65 437.01, 1077.02 435.45, 1079.72 432.80 C 1082.42 430.15, 1084.23 428.58, 1087.18 426.41 C 1090.14 424.25, 1091.75 423.23, 1094.49 421.97 C 1097.23 420.71, 1098.57 420.55, 1100.88 420.11 C 1103.19 419.68, 1104.16 419.61, 1106.06 419.78 C 1107.97 419.95, 1108.85 420.47, 1110.40 420.96 C 1111.96 421.44, 1112.59 421.89, 1113.85 422.22 C 1115.10 422.56, 1115.90 422.89, 1116.69 422.63 C 1117.47 422.37, 1117.90 421.75, 1117.75 420.91"/>
	<path stroke-linecap="null" stroke-linejoin="null" stroke-dasharray="null" stroke-width="5" stroke="#000000" fill="none" d="M 1164.66,426.10 C 1164.27 426.62, 1164.27 426.85, 1164.23 427.96 C 1164.20 429.08, 1164.13 429.91, 1164.48 431.66 C 1164.82 433.40, 1165.17 434.52, 1165.95 436.69 C 1166.72 438.85, 1167.14 440.28, 1168.34 442.50 C 1169.55 444.73, 1170.40 445.88, 1171.97 447.81 C 1173.53 449.74, 1174.28 450.70, 1176.17 452.15 C 1178.05 453.61, 1179.36 454.25, 1181.38 455.09 C 1183.41 455.93, 1184.55 456.21, 1186.29 456.34 C 1188.04 456.47, 1188.95 456.20, 1190.10 455.74 C 1191.25 455.28, 1191.78 454.67, 1192.05 454.05 C 1192.33 453.43, 1191.97 452.96, 1191.48 452.66 C 1190.98 452.37, 1190.48 452.70, 1189.58 452.57 C 1188.69 452.45, 1188.27 452.41, 1187.01 452.04 C 1185.74 451.67, 1184.84 451.44, 1183.24 450.73 C 1181.64 450.02, 1180.49 449.66, 1179.00 448.50 C 1177.50 447.34, 1176.94 446.58, 1175.77 444.92 C 1174.59 443.25, 1173.98 442.19, 1173.12 440.17 C 1172.25 438.16, 1172.08 436.86, 1171.45 434.84 C 1170.81 432.81, 1170.60 431.69, 1169.94 430.04 C 1169.28 428.40, 1168.90 427.54, 1168.15 426.60 C 1167.40 425.66, 1166.89 425.44, 1166.19 425.34 C 1165.49 425.24, 1165.05 425.58, 1164.66 426.10"/>
	<path stroke-linecap="null" stroke-linejoin="null" stroke-dasharray="null" stroke-width="5" stroke="#000000" fill="none" d="M 1226.37,423.78 C 1225.43 423.90, 1224.67 424.22, 1222.98 425.63 C 1221.29 427.05, 1220.33 428.15, 1217.89 430.86 C 1215.46 433.57, 1214.06 435.47, 1210.80 439.18 C 1207.53 442.89, 1205.53 445.09, 1201.57 449.43 C 1197.62 453.77, 1195.28 456.22, 1191.02 460.89 C 1186.76 465.57, 1184.40 468.01, 1180.27 472.80 C 1176.15 477.59, 1174.15 480.16, 1170.39 484.85 C 1166.64 489.54, 1164.71 492.07, 1161.48 496.25 C 1158.25 500.44, 1156.69 502.42, 1154.26 505.78 C 1151.83 509.14, 1150.67 510.61, 1149.32 513.08 C 1147.97 515.55, 1147.93 516.58, 1147.50 518.13 C 1147.08 519.69, 1147.21 520.08, 1147.20 520.84 C 1147.18 521.59, 1147.25 521.65, 1147.45 521.91 C 1147.64 522.17, 1147.86 522.24, 1148.17 522.15 C 1148.48 522.06, 1148.55 522.03, 1149.00 521.46 C 1149.44 520.89, 1149.66 520.61, 1150.39 519.30 C 1151.12 517.98, 1151.39 517.25, 1152.65 514.88 C 1153.92 512.51, 1154.55 510.87, 1156.71 507.44 C 1158.87 504.01, 1160.38 501.98, 1163.46 497.74 C 1166.55 493.50, 1168.46 490.95, 1172.15 486.24 C 1175.84 481.54, 1177.82 478.99, 1181.93 474.23 C 1186.04 469.47, 1188.40 467.06, 1192.71 462.45 C 1197.01 457.85, 1199.37 455.42, 1203.46 451.21 C 1207.55 446.99, 1209.65 444.88, 1213.14 441.38 C 1216.64 437.89, 1218.40 436.32, 1220.95 433.73 C 1223.49 431.14, 1224.55 430.17, 1225.89 428.43 C 1227.23 426.68, 1227.54 425.95, 1227.64 425.02 C 1227.73 424.09, 1227.30 423.65, 1226.37 423.78"/>
	<path stroke-linecap="null" stroke-linejoin="null" stroke-dasharray="null" stroke-width="5" stroke="#000000" fill="none" d="M 1302.40,420.61 C 1302.74 419.82, 1302.67 418.81, 1302.14 417.60 C 1301.61 416.40, 1301.08 415.69, 1299.74 414.61 C 1298.40 413.53, 1297.68 412.70, 1295.44 412.21 C 1293.21 411.73, 1291.74 411.64, 1288.57 412.19 C 1285.40 412.75, 1283.62 413.63, 1279.58 414.98 C 1275.53 416.33, 1272.91 417.02, 1268.36 418.96 C 1263.80 420.90, 1261.12 422.23, 1256.82 424.67 C 1252.52 427.11, 1250.36 428.61, 1246.87 431.15 C 1243.39 433.70, 1241.63 434.92, 1239.40 437.39 C 1237.17 439.86, 1236.47 441.20, 1235.72 443.51 C 1234.98 445.81, 1235.06 447.01, 1235.65 448.92 C 1236.24 450.84, 1236.88 451.78, 1238.67 453.08 C 1240.46 454.38, 1241.75 455.02, 1244.61 455.44 C 1247.47 455.86, 1249.33 455.68, 1252.96 455.18 C 1256.59 454.68, 1258.66 454.14, 1262.76 452.95 C 1266.86 451.77, 1269.02 450.98, 1273.47 449.24 C 1277.93 447.51, 1280.57 446.51, 1285.03 444.27 C 1289.50 442.04, 1291.76 440.55, 1295.82 438.08 C 1299.88 435.60, 1301.91 434.12, 1305.33 431.88 C 1308.76 429.64, 1310.80 428.79, 1312.96 426.89 C 1315.11 425.00, 1315.64 423.65, 1316.09 422.40 C 1316.55 421.15, 1316.17 420.63, 1315.23 420.64 C 1314.30 420.64, 1313.17 420.95, 1311.41 422.43 C 1309.65 423.92, 1308.34 425.41, 1306.43 428.07 C 1304.53 430.72, 1303.41 432.59, 1301.87 435.73 C 1300.33 438.87, 1299.52 440.67, 1298.73 443.76 C 1297.94 446.85, 1297.73 448.53, 1297.92 451.19 C 1298.11 453.84, 1298.74 455.07, 1299.70 457.05 C 1300.67 459.03, 1301.53 459.94, 1302.75 461.08 C 1303.98 462.23, 1304.75 462.42, 1305.82 462.77 C 1306.89 463.13, 1307.46 462.98, 1308.11 462.85 C 1308.76 462.73, 1308.88 462.47, 1309.07 462.14 C 1309.27 461.81, 1309.19 461.54, 1309.10 461.21 C 1309.01 460.87, 1308.98 460.80, 1308.64 460.45 C 1308.29 460.11, 1307.99 459.90, 1307.36 459.47 C 1306.74 459.03, 1306.30 459.11, 1305.51 458.28 C 1304.72 457.44, 1304.08 456.75, 1303.40 455.28 C 1302.72 453.82, 1302.17 453.03, 1302.12 450.96 C 1302.06 448.90, 1302.34 447.58, 1303.13 444.98 C 1303.92 442.38, 1304.47 440.67, 1306.06 437.98 C 1307.65 435.28, 1309.20 433.95, 1311.07 431.49 C 1312.94 429.02, 1314.35 427.66, 1315.41 425.66 C 1316.47 423.66, 1316.54 422.46, 1316.35 421.48 C 1316.16 420.49, 1315.67 420.33, 1314.45 420.75 C 1313.23 421.17, 1312.43 421.90, 1310.23 423.58 C 1308.03 425.27, 1306.64 426.79, 1303.45 429.19 C 1300.26 431.59, 1298.20 433.08, 1294.26 435.58 C 1290.32 438.08, 1288.12 439.52, 1283.75 441.68 C 1279.37 443.83, 1276.77 444.78, 1272.39 446.36 C 1268.02 447.93, 1265.85 448.63, 1261.87 449.54 C 1257.90 450.44, 1255.87 450.69, 1252.54 450.88 C 1249.20 451.08, 1247.60 450.73, 1245.21 450.51 C 1242.81 450.30, 1241.89 450.31, 1240.56 449.81 C 1239.24 449.31, 1238.89 449.04, 1238.57 448.02 C 1238.25 447.00, 1238.25 446.34, 1238.96 444.71 C 1239.68 443.08, 1240.19 442.06, 1242.15 439.85 C 1244.11 437.65, 1245.55 436.20, 1248.78 433.69 C 1252.01 431.18, 1254.15 429.65, 1258.31 427.30 C 1262.47 424.95, 1265.10 423.67, 1269.57 421.93 C 1274.03 420.20, 1276.69 419.61, 1280.64 418.63 C 1284.60 417.64, 1286.53 417.39, 1289.33 417.00 C 1292.13 416.61, 1293.11 416.48, 1294.63 416.68 C 1296.15 416.88, 1296.16 417.33, 1296.92 418.00 C 1297.67 418.67, 1297.70 419.29, 1298.40 420.01 C 1299.11 420.73, 1299.65 421.47, 1300.44 421.59 C 1301.24 421.71, 1302.06 421.41, 1302.40 420.61"/>
	<path stroke-linecap="null" stroke-linejoin="null" stroke-dasharray="null" stroke-width="5" stroke="#000000" fill="none" d="M 1361.40,474.85 C 1362.06 474.50, 1362.36 473.92, 1362.31 473.39 C 1362.25 472.87, 1361.79 472.46, 1361.11 472.22 C 1360.43 471.98, 1359.60 471.91, 1358.91 472.20 C 1358.23 472.50, 1357.68 473.10, 1357.70 473.69 C 1357.71 474.28, 1358.25 474.93, 1358.99 475.16 C 1359.73 475.39, 1360.73 475.20, 1361.40 474.85"/>
</g>
</svg>